# This file uses centimeters as units for non-parametric coordinates.

mtllib star.mtl
g default
v -0.019092 -0.001580 0.263752
v -0.024160 -0.003425 -0.247547
v 0.282708 0.411156 0.259271
v 0.277640 0.409311 -0.252027
v -0.015961 1.021062 0.260031
v -0.021028 1.019217 -0.251267
v -0.318360 0.413018 0.265222
v -0.323428 0.411174 -0.246076
v -0.990674 0.317447 0.272231
v -0.995742 0.315602 -0.239067
v -0.505850 -0.158081 0.269142
v -0.510918 -0.159926 -0.242157
v -0.622694 -0.827053 0.272712
v -0.627762 -0.828898 -0.238585
v -0.020659 -0.512901 0.265612
v -0.025726 -0.514747 -0.245687
v 0.579443 -0.830778 0.260811
v 0.574374 -0.832622 -0.250487
v 0.466698 -0.161094 0.259512
v 0.461630 -0.162938 -0.251786
v 0.954424 0.311419 0.252973
v 0.949356 0.309575 -0.258325
vt 0.165279 0.149769
vt 0.239195 0.251504
vt 0.000000 0.173785
vt 0.239195 0.000000
vt 0.313110 0.149769
vt 0.478389 0.173785
vt 0.358792 0.290364
vt 0.387025 0.454975
vt 0.239195 0.377256
vt 0.091364 0.454975
vt 0.119597 0.290364
vt 0.636940 0.584657
vt 0.574099 0.487519
vt 0.765952 0.501195
vt 0.703111 0.404058
vt 0.445087 0.570980
vt 0.507928 0.668118
vt 0.316075 0.654442
vt 0.378916 0.751580
vt 0.187062 0.737903
vt 0.249903 0.835041
vt 0.058049 0.821364
vt 0.120891 0.918503
vt 0.515078 0.828906
vt 0.460077 0.743886
vt 0.627995 0.755857
vt 0.572994 0.670837
vt 0.740912 0.682808
vt 0.685911 0.597788
vt 0.853829 0.609759
vt 0.798828 0.524739
vt 0.966747 0.536710
vt 0.911745 0.451691
vt 0.832123 0.320596
vt 0.894964 0.417734
vt 0.238273 0.252876
vt 0.238814 0.375826
vt 0.094612 0.452449
vt 0.383684 0.451177
vt 0.355372 0.290355
vt 0.471803 0.175860
vt 0.310103 0.153089
vt 0.237191 0.006976
vt 0.165567 0.153725
vt 0.004074 0.177918
vt 0.121508 0.291384
vn 0.009912 0.003609 0.999944
vn 0.009912 0.003609 0.999944
vn 0.009912 0.003609 0.999944
vn 0.009912 0.003609 0.999944
vn 0.009912 0.003609 0.999944
vn 0.009912 0.003609 0.999944
vn 0.009912 0.003609 0.999944
vn 0.009912 0.003609 0.999944
vn 0.009912 0.003609 0.999944
vn 0.009911 0.003608 0.999944
vn 0.009911 0.003608 0.999944
vn 0.009911 0.003608 0.999944
vn 0.009911 0.003609 0.999944
vn 0.009911 0.003609 0.999944
vn 0.009911 0.003609 0.999944
vn 0.009912 0.003606 0.999944
vn 0.009912 0.003606 0.999944
vn 0.009912 0.003606 0.999944
vn 0.009911 0.003607 0.999944
vn 0.009911 0.003607 0.999944
vn 0.009911 0.003607 0.999944
vn 0.009910 0.003607 0.999944
vn 0.009910 0.003607 0.999944
vn 0.009910 0.003607 0.999944
vn 0.009912 0.003608 0.999944
vn 0.009912 0.003608 0.999944
vn 0.009912 0.003608 0.999944
vn 0.009912 0.003608 0.999944
vn 0.009912 0.003608 0.999944
vn 0.009912 0.003608 0.999944
vn 0.146821 0.989150 -0.005026
vn 0.146822 0.989150 -0.005025
vn 0.146822 0.989150 -0.005024
vn 0.146822 0.989150 -0.005024
vn 0.146822 0.989150 -0.005025
vn 0.146823 0.989150 -0.005023
vn 0.898043 0.439782 -0.010489
vn 0.898043 0.439782 -0.010488
vn 0.898043 0.439782 -0.010488
vn 0.898043 0.439782 -0.010488
vn 0.898043 0.439782 -0.010488
vn 0.898043 0.439782 -0.010488
vn -0.895333 0.445339 0.007267
vn -0.895333 0.445339 0.007268
vn -0.895333 0.445339 0.007268
vn -0.895333 0.445339 0.007268
vn -0.895333 0.445339 0.007268
vn -0.895333 0.445339 0.007268
vn -0.140760 0.990041 -0.002176
vn -0.140760 0.990041 -0.002176
vn -0.140760 0.990041 -0.002176
vn -0.140760 0.990041 -0.002176
vn -0.140760 0.990041 -0.002176
vn -0.140760 0.990041 -0.002176
vn -0.700167 -0.713916 0.009515
vn -0.700167 -0.713916 0.009515
vn -0.700167 -0.713916 0.009516
vn -0.700167 -0.713916 0.009516
vn -0.700167 -0.713916 0.009515
vn -0.700167 -0.713916 0.009516
vn -0.985038 0.172097 0.009143
vn -0.985038 0.172097 0.009142
vn -0.985038 0.172097 0.009142
vn -0.985038 0.172097 0.009142
vn -0.985038 0.172097 0.009142
vn -0.985038 0.172097 0.009142
vn 0.462606 -0.886563 -0.001386
vn 0.462606 -0.886563 -0.001386
vn 0.462606 -0.886563 -0.001385
vn 0.462606 -0.886563 -0.001385
vn 0.462606 -0.886563 -0.001386
vn 0.462605 -0.886563 -0.001385
vn -0.468027 -0.883680 0.007829
vn -0.468027 -0.883680 0.007828
vn -0.468026 -0.883680 0.007828
vn -0.468026 -0.883680 0.007828
vn -0.468027 -0.883680 0.007828
vn -0.468026 -0.883680 0.007828
vn 0.986073 0.165990 -0.010374
vn 0.986073 0.165990 -0.010374
vn 0.986073 0.165989 -0.010373
vn 0.986073 0.165989 -0.010373
vn 0.986073 0.165990 -0.010374
vn 0.986073 0.165989 -0.010373
vn 0.695781 -0.718241 -0.004306
vn 0.695781 -0.718241 -0.004306
vn 0.695781 -0.718241 -0.004306
vn 0.695781 -0.718241 -0.004306
vn 0.695781 -0.718241 -0.004306
vn 0.695781 -0.718241 -0.004306
vn -0.009911 -0.003608 -0.999944
vn -0.009911 -0.003608 -0.999944
vn -0.009911 -0.003608 -0.999944
vn -0.009912 -0.003607 -0.999944
vn -0.009912 -0.003607 -0.999944
vn -0.009912 -0.003607 -0.999944
vn -0.009912 -0.003607 -0.999944
vn -0.009912 -0.003607 -0.999944
vn -0.009912 -0.003607 -0.999944
vn -0.009912 -0.003607 -0.999944
vn -0.009912 -0.003607 -0.999944
vn -0.009912 -0.003607 -0.999944
vn -0.009912 -0.003607 -0.999944
vn -0.009912 -0.003607 -0.999944
vn -0.009912 -0.003607 -0.999944
vn -0.009912 -0.003608 -0.999944
vn -0.009912 -0.003608 -0.999944
vn -0.009912 -0.003608 -0.999944
vn -0.009912 -0.003608 -0.999944
vn -0.009912 -0.003608 -0.999944
vn -0.009912 -0.003608 -0.999944
vn -0.009911 -0.003608 -0.999944
vn -0.009911 -0.003608 -0.999944
vn -0.009911 -0.003608 -0.999944
vn -0.009910 -0.003607 -0.999944
vn -0.009910 -0.003607 -0.999944
vn -0.009910 -0.003607 -0.999944
vn -0.009911 -0.003609 -0.999944
vn -0.009911 -0.003609 -0.999944
vn -0.009911 -0.003609 -0.999944
s off
g star:Mesh
usemtl lambert2SG
f 3/1/1 1/2/2 21/3/3
f 1/2/4 3/1/5 5/4/6
f 1/2/7 5/4/8 7/5/9
f 1/2/10 7/5/11 9/6/12
f 1/2/13 9/6/14 11/7/15
f 1/2/16 11/7/17 13/8/18
f 1/2/19 13/8/20 15/9/21
f 1/2/22 15/9/23 17/10/24
f 1/2/25 17/10/26 19/11/27
f 1/2/28 19/11/29 21/3/30
f 4/12/31 3/13/32 22/14/33
f 22/14/34 3/13/35 21/15/36
f 3/13/37 4/12/38 5/16/39
f 5/16/40 4/12/41 6/17/42
f 5/16/43 6/17/44 7/18/45
f 7/18/46 6/17/47 8/19/48
f 7/18/49 8/19/50 9/20/51
f 9/20/52 8/19/53 10/21/54
f 9/20/55 10/21/56 11/22/57
f 11/22/58 10/21/59 12/23/60
f 11/24/61 12/25/62 13/26/63
f 13/26/64 12/25/65 14/27/66
f 13/26/67 14/27/68 15/28/69
f 15/28/70 14/27/71 16/29/72
f 15/28/73 16/29/74 17/30/75
f 17/30/76 16/29/77 18/31/78
f 17/30/79 18/31/80 19/32/81
f 19/32/82 18/31/83 20/33/84
f 19/34/85 20/35/86 21/15/87
f 21/15/88 20/35/89 22/14/90
f 2/36/91 4/37/92 22/38/93
f 4/37/94 2/36/95 6/39/96
f 6/39/97 2/36/98 8/40/99
f 8/40/100 2/36/101 10/41/102
f 10/41/103 2/36/104 12/42/105
f 12/42/106 2/36/107 14/43/108
f 14/43/109 2/36/110 16/44/111
f 16/44/112 2/36/113 18/45/114
f 18/45/115 2/36/116 20/46/117
f 20/46/118 2/36/119 22/38/120
