# Rhino

g object_1
v -3.92293381690979 4.762012004852295 0
v -3.912194013595581 0.2610484957695007 0
v -3.932148218154907 -4.264110565185547 0
v -1.134548664093018 4.851629257202148 0
v -1.123972415924072 0.3585197925567627 0
v -1.150485157966614 -4.235270500183105 0
v -1.175623178482056 -8.795760154724121 0
v -1.17024552822113 -13.30226039886475 0
v 1.643691301345825 4.847285270690918 0
v 1.647043704986572 0.3511597812175751 0
v 1.635515213012695 -4.240032196044922 0
v 1.620224833488464 -8.811651229858398 0
v 1.614749193191528 -13.36300563812256 0
v 1.620491623878479 -17.86382293701172 0
v 4.424450397491455 -4.267611026763916 0
v 4.423167705535889 -8.792052268981934 0
v 4.424180030822754 -13.36302947998047 0
v 4.419906139373779 -17.95423698425293 0
v 4.418558120727539 -22.40691566467285 0
v 7.216875076293945 -13.28592109680176 0
v 7.238306045532227 -17.89795875549316 0
v 7.239064693450928 -22.39181137084961 0
v 10.02194118499756 -17.77285957336426 0
v 10.03420448303223 -22.28831481933594 0
v 13.25149250030518 -20.66403770446777 0
v 11.43911647796631 -22.38603973388672 0
v 9.626741409301758 -24.1080436706543 0
v 7.814365386962891 -25.83004570007324 0
v 6.001989841461182 -27.55204963684082 0
v 4.714403629302979 -26.13017082214355 0
v 3.501251220703125 -24.65435028076172 0
v 2.36372447013855 -23.1275691986084 0
v 1.303014993667603 -21.55281639099121 0
v 0.3203144669532776 -19.93307113647461 0
v -0.5831855535507202 -18.27132034301758 0
v -1.406293392181396 -16.57054901123047 0
v -2.147817373275757 -14.83373928070068 0
v -2.80656623840332 -13.06387615203857 0
v -3.381347894668579 -11.26394271850586 0
v -3.870970964431763 -9.436924934387207 0
v -4.274243831634521 -7.585805416107178 0
v -4.589974880218506 -5.713569164276123 0
v -4.816972255706787 -3.823199987411499 0
v -4.954044342041016 -1.917682290077209 0
v -5 0 0
v -7.5 0 0
v -10 0 0
v -8.75 1.25 0
v -7.5 2.5 0
v -6.25 3.75 0
v -5 5 0
v -3.75 6.25 0
v -2.5 7.5 0
v -1.25 8.75 0
v 0 10 0
v 1.25 8.75 0
v 2.5 7.5 0
v 3.75 6.25 0
v 5 5 0
v 6.25 3.75 0
v 7.5 2.5 0
v 8.75 1.25 0
v 10 0 0
v 7.5 0 0
v 5 0 0
v 5.135182857513428 -2.846133232116699 0
v 5.538510799407959 -5.660645008087158 0
v 6.206654071807861 -8.424311637878418 0
v 7.136281490325928 -11.11790657043457 0
v 8.314813613891602 -13.70932865142822 0
v 9.735107421875 -16.17663192749023 0
v 11.3858470916748 -18.50451850891113 0
v -6.726312160491943 0.2261046469211578 0
v 4.425790786743164 0.2513272166252136 0
v 7.209690570831299 0.227279856801033 0
vt 0.2601341605186462 0.1394854933023453
vt 0.2601341605186462 0.259509414434433
vt 0.2601341605186462 0.3795333206653595
vt 0.3803393244743347 0.1394854933023453
vt 0.3803393244743347 0.259509414434433
vt 0.3803393244743347 0.3795333206653595
vt 0.3803393244743347 0.4995572566986084
vt 0.3803393244743347 0.6195811629295349
vt 0.5005444884300232 0.1394854933023453
vt 0.5005444884300232 0.259509414434433
vt 0.5005444884300232 0.3795333206653595
vt 0.5005444884300232 0.4995572566986084
vt 0.5005444884300232 0.6195811629295349
vt 0.5005444884300232 0.7396050691604614
vt 0.6207497119903564 0.3795333206653595
vt 0.6207497119903564 0.4995572566986084
vt 0.6207497119903564 0.6195811629295349
vt 0.6207497119903564 0.7396050691604614
vt 0.6207497119903564 0.8596290349960327
vt 0.7409548759460449 0.6195811629295349
vt 0.7409548759460449 0.7396050691604614
vt 0.7409548759460449 0.8596290349960327
vt 0.8611600399017334 0.7396050691604614
vt 0.8611600399017334 0.8596290349960327
vt 1 0.8175402283668518
vt 0.9241555333137512 0.8634074330329895
vt 0.8448111414909363 0.9094201326370239
vt 0.7671532034873962 0.9558172821998596
vt 0.6888651251792908 1
vt 0.6331028342247009 0.9638758301734924
vt 0.580879807472229 0.9243078827857971
vt 0.5318133234977722 0.8831557035446167
vt 0.4860000312328339 0.8410661220550537
vt 0.4435881376266479 0.797959566116333
vt 0.4045893549919128 0.7536035180091858
vt 0.369058221578598 0.7081419825553894
vt 0.3370529115200043 0.6617416143417358
vt 0.3086232542991638 0.6144815683364868
vt 0.2838244438171387 0.5664253234863281
vt 0.2626911997795105 0.5176393985748291
vt 0.2452651858329773 0.4681891798973083
vt 0.2316299676895142 0.4181612432003021
vt 0.221851110458374 0.3676609992980957
vt 0.2159559279680252 0.3168227076530457
vt 0.213970348238945 0.2658183872699738
vt 0.1057493016123772 0.2655523717403412
vt 0 0.2656303346157074
vt 0.05161481350660324 0.2321823537349701
vt 0.1059126481413841 0.1987262517213821
vt 0.1602748930454254 0.165407121181488
vt 0.2139479517936707 0.132170096039772
vt 0.2677887082099915 0.09872609376907349
vt 0.3218579590320587 0.06501442193984985
vt 0.3758382797241211 0.03151874616742134
vt 0.4297608733177185 0
vt 0.4837078750133514 0.03156381845474243
vt 0.5376461148262024 0.06502154469490051
vt 0.591605544090271 0.09870868176221848
vt 0.6455726623535156 0.1321516633033752
vt 0.6995334029197693 0.1654183566570282
vt 0.7534186244010925 0.1987300366163254
vt 0.8073050379753113 0.2321562916040421
vt 0.861568808555603 0.2656833231449127
vt 0.7534839510917664 0.2655900716781616
vt 0.645557165145874 0.265853077173233
vt 0.6513873338699341 0.3415907323360443
vt 0.668803334236145 0.4167382419109344
vt 0.6976370811462402 0.4905914962291718
vt 0.7377797365188599 0.5625255107879639
vt 0.7887232899665833 0.6316935420036316
vt 0.8496279120445251 0.6975796222686768
vt 0.9216473698616028 0.7597418427467346
vt 0.1399289965629578 0.259509414434433
vt 0.6207497119903564 0.259509414434433
vt 0.7409548759460449 0.259509414434433
vn 0 0 -1
vn 0 0 -1
vn 0 0 -1
vn 0 0 -1
vn 0 0 -1
vn 0 0 -1
vn 0 0 -1
vn 0 0 -1
vn 0 0 -1
vn 0 0 -1
vn 0 0 -1
vn 0 0 -1
vn 0 0 -1
vn 0 0 -1
vn 0 0 -1
vn 0 0 -1
vn 0 0 -1
vn 0 0 -1
vn 0 0 -1
vn 0 0 -1
vn 0 0 -1
vn 0 0 -1
vn 0 0 -1
vn 0 0 -1
vn 0 0 -1
vn 0 0 -1
vn 0 0 -1
vn 0 0 -1
vn 0 0 -1
vn 0 0 -1
vn 0 0 -1
vn 0 0 -1
vn 0 0 -1
vn 0 0 -1
vn 0 0 -1
vn 0 0 -1
vn 0 0 -1
vn 0 0 -1
vn 0 0 -1
vn 0 0 -1
vn 0 0 -1
vn 0 0 -1
vn 0 0 -1
vn 0 0 -1
vn 0 0 -1
vn 0 0 -1
vn 0 0 -1
vn 0 0 -1
vn 0 0 -1
vn 0 0 -1
vn 0 0 -1
vn 0 0 -1
vn 0 0 -1
vn 0 0 -1
vn 0 0 -1
vn 0 0 -1
vn 0 0 -1
vn 0 0 -1
vn 0 0 -1
vn 0 0 -1
vn 0 0 -1
vn 0 0 -1
vn 0 0 -1
vn 0 0 -1
vn 0 0 -1
vn 0 0 -1
vn 0 0 -1
vn 0 0 -1
vn 0 0 -1
vn 0 0 -1
vn 0 0 -1
vn 0 0 -1
vn 0 0 -1
vn 0 0 -1
vn 0 0 -1
f 5/5/5 2/2/2 1/1/1 4/4/4
f 6/6/6 3/3/3 2/2/2 5/5/5
f 10/10/10 5/5/5 4/4/4 9/9/9
f 11/11/11 6/6/6 5/5/5 10/10/10
f 12/12/12 7/7/7 6/6/6 11/11/11
f 13/13/13 8/8/8 7/7/7 12/12/12
f 15/15/15 11/11/11 10/10/10
f 16/16/16 12/12/12 11/11/11 15/15/15
f 17/17/17 13/13/13 12/12/12 16/16/16
f 18/18/18 14/14/14 13/13/13 17/17/17
f 21/21/21 18/18/18 17/17/17 20/20/20
f 22/22/22 19/19/19 18/18/18 21/21/21
f 24/24/24 22/22/22 21/21/21 23/23/23
f 50/50/50 73/73/73 49/49/49
f 50/50/50 51/51/51 2/2/2
f 52/52/52 1/1/1 51/51/51
f 73/73/73 50/50/50 2/2/2
f 46/46/46 47/47/47 48/48/48
f 45/45/45 46/46/46 73/73/73
f 49/49/49 46/46/46 48/48/48
f 73/73/73 46/46/46 49/49/49
f 1/1/1 2/2/2 51/51/51
f 73/73/73 2/2/2 45/45/45
f 54/54/54 4/4/4 53/53/53
f 54/54/54 55/55/55 56/56/56
f 56/56/56 4/4/4 54/54/54
f 52/52/52 4/4/4 1/1/1
f 53/53/53 4/4/4 52/52/52
f 74/74/74 10/10/10 9/9/9
f 4/4/4 56/56/56 9/9/9
f 44/44/44 45/45/45 2/2/2
f 9/9/9 56/56/56 57/57/57
f 3/3/3 43/43/43 44/44/44
f 41/41/41 42/42/42 3/3/3
f 43/43/43 3/3/3 42/42/42
f 44/44/44 2/2/2 3/3/3
f 7/7/7 40/40/40 41/41/41
f 40/40/40 7/7/7 39/39/39
f 38/38/38 39/39/39 8/8/8
f 37/37/37 38/38/38 8/8/8
f 6/6/6 41/41/41 3/3/3
f 7/7/7 8/8/8 39/39/39
f 36/36/36 8/8/8 13/13/13
f 37/37/37 8/8/8 36/36/36
f 14/14/14 35/35/35 36/36/36
f 33/33/33 34/34/34 14/14/14
f 35/35/35 14/14/14 34/34/34
f 19/19/19 33/33/33 14/14/14
f 14/14/14 36/36/36 13/13/13
f 6/6/6 7/7/7 41/41/41
f 9/9/9 58/58/58 74/74/74
f 75/75/75 74/74/74 60/60/60
f 58/58/58 59/59/59 74/74/74
f 10/10/10 74/74/74 15/15/15
f 15/15/15 67/67/67 16/16/16
f 69/69/69 17/17/17 16/16/16
f 66/66/66 15/15/15 74/74/74
f 75/75/75 64/64/64 65/65/65
f 15/15/15 66/66/66 67/67/67
f 66/66/66 74/74/74 65/65/65
f 59/59/59 60/60/60 74/74/74
f 61/61/61 75/75/75 60/60/60
f 64/64/64 75/75/75 61/61/61
f 62/62/62 64/64/64 61/61/61
f 16/16/16 67/67/67 68/68/68
f 62/62/62 63/63/63 64/64/64
f 16/16/16 68/68/68 69/69/69
f 75/75/75 65/65/65 74/74/74
f 20/20/20 17/17/17 69/69/69
f 33/33/33 19/19/19 32/32/32
f 70/70/70 21/21/21 20/20/20
f 31/31/31 32/32/32 19/19/19
f 28/28/28 29/29/29 30/30/30
f 19/19/19 30/30/30 31/31/31
f 22/22/22 28/28/28 30/30/30
f 19/19/19 22/22/22 30/30/30
f 19/19/19 14/14/14 18/18/18
f 21/21/21 71/71/71 23/23/23
f 24/24/24 23/23/23 72/72/72
f 71/71/71 72/72/72 23/23/23
f 27/27/27 28/28/28 22/22/22
f 24/24/24 72/72/72 26/26/26
f 25/25/25 26/26/26 72/72/72
f 27/27/27 24/24/24 26/26/26
f 22/22/22 24/24/24 27/27/27
f 71/71/71 21/21/21 70/70/70
f 70/70/70 20/20/20 69/69/69
f 57/57/57 58/58/58 9/9/9
