# Rhino

g object_1
v -4.741004467010498 3.270439386367798 0
v -2.373311042785645 6.427122592926025 0
v -2.366139650344849 3.34957480430603 0
v -2.364031791687012 0.1721628904342651 0
v -2.377873659133911 -2.997896432876587 0
v -2.390301704406738 -6.152460098266602 0
v -2.393689870834351 -9.284995079040527 0
v -2.387092351913452 -12.36982822418213 0
v -2.37476921081543 -15.43084239959717 0
v -6.716849298982197e-15 6.493995666503906 0
v -9.83935155574045e-15 3.401574611663818 0
v -1.892930256985892e-14 0.1996608376502991 0
v -2.176037128265307e-14 -2.995766639709473 0
v -6.551703624069205e-14 -6.168755531311035 0
v -1.099675905891218e-13 -9.311000823974609 0
v -8.393286066166183e-14 -12.3729190826416 0
v -2.609024107869118e-14 -15.42936325073242 0
v 2.373311042785645 6.427122592926025 0
v 2.366139650344849 3.34957480430603 0
v 2.364031791687012 0.1721628904342651 0
v 2.377873659133911 -2.997896432876587 0
v 2.390301704406738 -6.152460098266602 0
v 2.393689870834351 -9.284995079040527 0
v 2.387092351913452 -12.36982822418213 0
v 2.37476921081543 -15.43084239959717 0
v 4.741004467010498 3.270439386367798 0
v 0 10 0
v 1.249116659164429 8.750879287719727 0
v 2.498231887817383 7.501757144927979 0
v 3.747349977493286 6.25263786315918 0
v 4.996474742889404 5.003525257110596 0
v 6.24736213684082 3.752650022506714 0
v 7.498242855072021 2.501768112182617 0
v 8.749120712280273 1.250883340835571 0
v 10 1.77635683940025e-15 0
v 8.75 2.831068712794149e-15 0
v 7.5 3.552713678800501e-15 0
v 6.25 4.274358644806853e-15 0
v 5 5.329070518200751e-15 0
v 5 -1 0
v 5 -2 0
v 5 -3 0
v 5 -4 0
v 5 -5 0
v 5 -6 0
v 5 -7 0
v 5 -8 0
v 5 -9 0
v 5 -10 0
v 5 -11 0
v 5 -12 0
v 5 -13 0
v 5 -14 0
v 5 -15 0
v 5 -16 0
v 3.75 -16 0
v 2.5 -16 0
v 1.25 -16 0
v -4.440892098500626e-16 -16 0
v -1.25 -16 0
v -2.5 -16 0
v -3.75 -16 0
v -5 -16 0
v -5 -15 0
v -5 -14 0
v -5 -13 0
v -5 -12 0
v -5 -11 0
v -5 -10 0
v -5 -9 0
v -5 -8 0
v -5 -7 0
v -5 -6 0
v -5 -5 0
v -5 -4 0
v -5 -3 0
v -5 -2 0
v -5 -1 0
v -5 -5.329070518200751e-15 0
v -6.25 -4.329869796038111e-15 0
v -7.5 -3.996802888650564e-15 0
v -8.75 -4.329869796038111e-15 0
v -10 -5.329070518200751e-15 0
v -8.749120712280273 1.250883460044861 0
v -7.498242378234863 2.501768350601196 0
v -6.247361660003662 3.752650499343872 0
v -4.996474266052246 5.003525733947754 0
v -3.747349500656128 6.252638339996338 0
v -2.498231649398804 7.501757621765137 0
v -1.249116539955139 8.750879287719727 0
v -7.12772274017334 0.1198060661554337 0
v -4.745479583740234 -15.46757793426514 0
v 7.12772274017334 0.1198060661554337 0
v 4.745479583740234 -15.46757793426514 0
vt 0.261775940656662 0.2592080533504486
vt 0.3808879554271698 0.139099195599556
vt 0.3808879554271698 0.2592080533504486
vt 0.3808879554271698 0.3793169260025024
vt 0.3808879554271698 0.4994257986545563
vt 0.3808879554271698 0.6195346713066101
vt 0.3808879554271698 0.7396435141563416
vt 0.3808879554271698 0.859752357006073
vt 0.3808879554271698 0.9798612594604492
vt 0.5 0.139099195599556
vt 0.5 0.2592080533504486
vt 0.5 0.3793169260025024
vt 0.5 0.4994257986545563
vt 0.5 0.6195346713066101
vt 0.5 0.7396435141563416
vt 0.5 0.859752357006073
vt 0.5 0.9798612594604492
vt 0.6191120147705078 0.139099195599556
vt 0.6191120147705078 0.2592080533504486
vt 0.6191120147705078 0.3793169260025024
vt 0.6191120147705078 0.4994257986545563
vt 0.6191120147705078 0.6195346713066101
vt 0.6191120147705078 0.7396435141563416
vt 0.6191120147705078 0.859752357006073
vt 0.6191120147705078 0.9798612594604492
vt 0.7382240891456604 0.2592080533504486
vt 0.5 0
vt 0.5627449154853821 0.04659509286284447
vt 0.6254000067710876 0.09516759216785431
vt 0.6881252527236938 0.1434086859226227
vt 0.7509483695030212 0.1912376582622528
vt 0.8135371208190918 0.239445760846138
vt 0.876405656337738 0.2876266837120056
vt 0.9397404789924622 0.3357473909854889
vt 1 0.3839206397533417
vt 0.940419614315033 0.3839898109436035
vt 0.8764695525169373 0.3839395642280579
vt 0.8131861090660095 0.3839117884635925
vt 0.7512082457542419 0.384129673242569
vt 0.7511553168296814 0.4224730432033539
vt 0.7510846257209778 0.4609276354312897
vt 0.7510231733322144 0.4994116425514221
vt 0.7509981393814087 0.5378667116165161
vt 0.7510074973106384 0.5763292908668518
vt 0.7510248422622681 0.6148597598075867
vt 0.7510404586791992 0.6534937620162964
vt 0.7510445713996887 0.6921203136444092
vt 0.7510397434234619 0.7305768728256226
vt 0.7510358691215515 0.7687487602233887
vt 0.7510339021682739 0.8068674802780151
vt 0.7510350346565247 0.8453363180160522
vt 0.7510404586791992 0.8845283985137939
vt 0.7510513663291931 0.923919141292572
vt 0.7510684728622437 0.9623427391052246
vt 0.751091480255127 0.9987327456474304
vt 0.688211977481842 0.999550998210907
vt 0.6255045533180237 1
vt 0.5627723932266235 0.9999709725379944
vt 0.5 0.9998449683189392
vt 0.4372276365756989 0.9999709725379944
vt 0.3744954466819763 1
vt 0.3117880523204803 0.999550998210907
vt 0.248908519744873 0.9987327456474304
vt 0.2489315420389175 0.9623427391052246
vt 0.2489486187696457 0.923919141292572
vt 0.248959556221962 0.8845283985137939
vt 0.2489649653434753 0.8453363180160522
vt 0.2489660829305649 0.8068674802780151
vt 0.2489641606807709 0.7687487602233887
vt 0.2489602714776993 0.7305768728256226
vt 0.2489554435014725 0.6921203136444092
vt 0.2489595264196396 0.6534937620162964
vt 0.2489751428365707 0.6148597598075867
vt 0.2489924728870392 0.5763292908668518
vt 0.2490018457174301 0.5378667116165161
vt 0.2489768415689468 0.4994116425514221
vt 0.2489154040813446 0.4609276354312897
vt 0.2488446682691574 0.4224730432033539
vt 0.2487917393445969 0.384129673242569
vt 0.1868139207363129 0.3839117884635925
vt 0.123530425131321 0.3839395642280579
vt 0.05958036705851555 0.3839898109436035
vt 0 0.3839206397533417
vt 0.06025951355695724 0.3357473909854889
vt 0.1235943287611008 0.2876266539096832
vt 0.1864629238843918 0.2394457459449768
vt 0.2490516304969788 0.1912376284599304
vt 0.3118747472763062 0.1434086710214615
vt 0.3745999932289124 0.09516758471727371
vt 0.4372551143169403 0.04659508913755417
vt 0.1426638960838318 0.3793169260025024
vt 0.261775940656662 0.9798612594604492
vt 0.8573361039161682 0.3793169260025024
vt 0.7382240891456604 0.9798612594604492
vn 0 0 -1
vn 0 0 -1
vn 0 0 -1
vn 0 0 -1
vn 0 0 -1
vn 0 0 -1
vn 0 0 -1
vn 0 0 -1
vn 0 0 -1
vn 0 0 -1
vn 0 0 -1
vn 0 0 -1
vn 0 0 -1
vn 0 0 -1
vn 0 0 -1
vn 0 0 -1
vn 0 0 -1
vn 0 0 -1
vn 0 0 -1
vn 0 0 -1
vn 0 0 -1
vn 0 0 -1
vn 0 0 -1
vn 0 0 -1
vn 0 0 -1
vn 0 0 -1
vn 0 0 -1
vn 0 0 -1
vn 0 0 -1
vn 0 0 -1
vn 0 0 -1
vn 0 0 -1
vn 0 0 -1
vn 0 0 -1
vn 0 0 -1
vn 0 0 -1
vn 0 0 -1
vn 0 0 -1
vn 0 0 -1
vn 0 0 -1
vn 0 0 -1
vn 0 0 -1
vn 0 0 -1
vn 0 0 -1
vn 0 0 -1
vn 0 0 -1
vn 0 0 -1
vn 0 0 -1
vn 0 0 -1
vn 0 0 -1
vn 0 0 -1
vn 0 0 -1
vn 0 0 -1
vn 0 0 -1
vn 0 0 -1
vn 0 0 -1
vn 0 0 -1
vn 0 0 -1
vn 0 0 -1
vn 0 0 -1
vn 0 0 -1
vn 0 0 -1
vn 0 0 -1
vn 0 0 -1
vn 0 0 -1
vn 0 0 -1
vn 0 0 -1
vn 0 0 -1
vn 0 0 -1
vn 0 0 -1
vn 0 0 -1
vn 0 0 -1
vn 0 0 -1
vn 0 0 -1
vn 0 0 -1
vn 0 0 -1
vn 0 0 -1
vn 0 0 -1
vn 0 0 -1
vn 0 0 -1
vn 0 0 -1
vn 0 0 -1
vn 0 0 -1
vn 0 0 -1
vn 0 0 -1
vn 0 0 -1
vn 0 0 -1
vn 0 0 -1
vn 0 0 -1
vn 0 0 -1
vn 0 0 -1
vn 0 0 -1
vn 0 0 -1
vn 0 0 -1
f 1/1/1 3/3/3 4/4/4
f 11/11/11 3/3/3 2/2/2 10/10/10
f 12/12/12 4/4/4 3/3/3 11/11/11
f 13/13/13 5/5/5 4/4/4 12/12/12
f 14/14/14 6/6/6 5/5/5 13/13/13
f 15/15/15 7/7/7 6/6/6 14/14/14
f 16/16/16 8/8/8 7/7/7 15/15/15
f 17/17/17 9/9/9 8/8/8 16/16/16
f 19/19/19 11/11/11 10/10/10 18/18/18
f 20/20/20 12/12/12 11/11/11 19/19/19
f 21/21/21 13/13/13 12/12/12 20/20/20
f 22/22/22 14/14/14 13/13/13 21/21/21
f 23/23/23 15/15/15 14/14/14 22/22/22
f 24/24/24 16/16/16 15/15/15 23/23/23
f 25/25/25 17/17/17 16/16/16 24/24/24
f 20/20/20 19/19/19 26/26/26
f 85/85/85 81/81/81 84/84/84
f 85/85/85 86/86/86 91/91/91
f 91/91/91 86/86/86 1/1/1
f 79/79/79 80/80/80 91/91/91
f 91/91/91 81/81/81 85/85/85
f 83/83/83 84/84/84 82/82/82
f 81/81/81 82/82/82 84/84/84
f 77/77/77 78/78/78 5/5/5
f 79/79/79 4/4/4 78/78/78
f 80/80/80 81/81/81 91/91/91
f 1/1/1 4/4/4 91/91/91
f 2/2/2 88/88/88 89/89/89
f 10/10/10 2/2/2 90/90/90
f 89/89/89 90/90/90 2/2/2
f 28/28/28 10/10/10 90/90/90
f 3/3/3 88/88/88 2/2/2
f 91/91/91 4/4/4 79/79/79
f 87/87/87 1/1/1 86/86/86
f 1/1/1 87/87/87 88/88/88
f 78/78/78 4/4/4 5/5/5
f 77/77/77 5/5/5 76/76/76
f 1/1/1 88/88/88 3/3/3
f 75/75/75 76/76/76 5/5/5
f 72/72/72 6/6/6 71/71/71
f 7/7/7 69/69/69 70/70/70
f 70/70/70 71/71/71 7/7/7
f 7/7/7 68/68/68 69/69/69
f 92/92/92 64/64/64 65/65/65
f 92/92/92 63/63/63 64/64/64
f 68/68/68 8/8/8 67/67/67
f 8/8/8 66/66/66 67/67/67
f 8/8/8 65/65/65 66/66/66
f 73/73/73 6/6/6 72/72/72
f 74/74/74 75/75/75 5/5/5
f 6/6/6 7/7/7 71/71/71
f 7/7/7 8/8/8 68/68/68
f 74/74/74 5/5/5 6/6/6
f 8/8/8 9/9/9 65/65/65
f 61/61/61 62/62/62 9/9/9
f 92/92/92 65/65/65 9/9/9
f 63/63/63 92/92/92 62/62/62
f 60/60/60 9/9/9 17/17/17
f 59/59/59 60/60/60 17/17/17
f 61/61/61 9/9/9 60/60/60
f 9/9/9 62/62/62 92/92/92
f 6/6/6 73/73/73 74/74/74
f 10/10/10 28/28/28 18/18/18
f 30/30/30 18/18/18 29/29/29
f 28/28/28 29/29/29 18/18/18
f 19/19/19 18/18/18 30/30/30
f 41/41/41 42/42/42 21/21/21
f 32/32/32 33/33/33 93/93/93
f 30/30/30 26/26/26 19/19/19
f 31/31/31 32/32/32 26/26/26
f 40/40/40 21/21/21 20/20/20
f 26/26/26 30/30/30 31/31/31
f 43/43/43 21/21/21 42/42/42
f 26/26/26 93/93/93 20/20/20
f 39/39/39 20/20/20 93/93/93
f 33/33/33 37/37/37 93/93/93
f 93/93/93 38/38/38 39/39/39
f 34/34/34 37/37/37 33/33/33
f 38/38/38 93/93/93 37/37/37
f 41/41/41 21/21/21 40/40/40
f 39/39/39 40/40/40 20/20/20
f 37/37/37 34/34/34 36/36/36
f 35/35/35 36/36/36 34/34/34
f 93/93/93 26/26/26 32/32/32
f 22/22/22 47/47/47 23/23/23
f 25/25/25 24/24/24 53/53/53
f 44/44/44 22/22/22 21/21/21
f 24/24/24 23/23/23 50/50/50
f 44/44/44 21/21/21 43/43/43
f 17/17/17 58/58/58 59/59/59
f 58/58/58 17/17/17 25/25/25
f 57/57/57 58/58/58 25/25/25
f 57/57/57 25/25/25 56/56/56
f 94/94/94 25/25/25 53/53/53
f 55/55/55 56/56/56 94/94/94
f 56/56/56 25/25/25 94/94/94
f 44/44/44 45/45/45 22/22/22
f 23/23/23 49/49/49 50/50/50
f 49/49/49 23/23/23 48/48/48
f 23/23/23 47/47/47 48/48/48
f 47/47/47 22/22/22 46/46/46
f 24/24/24 51/51/51 52/52/52
f 50/50/50 51/51/51 24/24/24
f 94/94/94 54/54/54 55/55/55
f 94/94/94 53/53/53 54/54/54
f 24/24/24 52/52/52 53/53/53
f 46/46/46 22/22/22 45/45/45
f 27/27/27 28/28/28 90/90/90
