# This file uses centimeters as units for non-parametric coordinates.

mtllib arrow1.mtl
g default
v -0.375000 -0.125000 -0.099451
v 0.375000 -0.125000 -0.099451
v -0.375000 0.125000 -0.099451
v 0.375000 0.125000 -0.099451
v -0.375000 0.125000 -1.099451
v 0.375000 0.125000 -1.099451
v -0.375000 -0.125000 -1.099451
v 0.375000 -0.125000 -1.099451
v -0.750000 -0.125000 -1.098997
v 0.750000 -0.125000 -1.098997
v -0.750000 0.125000 -1.098997
v 0.750000 0.125000 -1.098997
v 0.002607 0.125000 -2.071038
v 0.005803 0.125000 -2.070564
v 0.002607 -0.125000 -2.071038
v 0.005803 -0.125000 -2.070564
vt 0.375000 0.000000
vt 0.625000 0.000000
vt 0.375000 0.250000
vt 0.625000 0.250000
vt 0.375000 0.500000
vt 0.625000 0.500000
vt 0.375000 0.750000
vt 0.625000 0.750000
vt 0.375000 1.000000
vt 0.625000 1.000000
vt 0.875000 0.000000
vt 0.875000 0.250000
vt 0.125000 0.000000
vt 0.125000 0.250000
vt 0.375000 0.000000
vt 0.625000 0.000000
vt 0.625000 0.250000
vt 0.375000 0.250000
vt 0.625000 0.500000
vt 0.375000 0.500000
vt 0.625000 0.750000
vt 0.375000 0.750000
vt 0.625000 1.000000
vt 0.375000 1.000000
vt 0.875000 0.000000
vt 0.875000 0.250000
vt 0.125000 0.000000
vt 0.125000 0.250000
vn 0.000000 0.000000 1.000000
vn 0.000000 0.000000 1.000000
vn 0.000000 0.000000 1.000000
vn 0.000000 0.000000 1.000000
vn 0.000000 1.000000 0.000000
vn 0.000000 1.000000 0.000000
vn 0.000000 1.000000 0.000000
vn 0.000000 1.000000 0.000000
vn 0.000000 0.000000 -1.000000
vn 0.000000 0.000000 -1.000000
vn 0.000000 0.000000 -1.000000
vn 0.000000 0.000000 -1.000000
vn 0.000000 -1.000000 0.000000
vn 0.000000 -1.000000 0.000000
vn 0.000000 -1.000000 0.000000
vn 0.000000 -1.000000 0.000000
vn 1.000000 0.000000 0.000000
vn 1.000000 0.000000 0.000000
vn 1.000000 0.000000 0.000000
vn 1.000000 0.000000 0.000000
vn -1.000000 0.000000 0.000000
vn -1.000000 0.000000 0.000000
vn -1.000000 0.000000 0.000000
vn -1.000000 0.000000 0.000000
vn 0.000000 0.000000 1.000000
vn 0.000000 0.000000 1.000000
vn 0.000000 0.000000 1.000000
vn 0.000000 0.000000 1.000000
vn 0.000000 1.000000 -0.000001
vn 0.000000 1.000000 -0.000000
vn 0.000000 1.000000 -0.000000
vn 0.000000 1.000000 0.000000
vn 0.146835 0.000000 -0.989161
vn 0.146834 0.000000 -0.989161
vn 0.146692 0.000000 -0.989182
vn 0.146691 0.000000 -0.989182
vn 0.000000 -1.000000 0.000000
vn 0.000000 -1.000000 0.000000
vn 0.000000 -1.000000 0.000000
vn 0.000000 -1.000000 0.000000
vn 0.793871 0.000000 -0.608086
vn 0.793871 0.000000 -0.608086
vn 0.793871 0.000000 -0.608086
vn 0.793871 0.000000 -0.608086
vn -0.790701 0.000000 -0.612203
vn -0.790701 0.000000 -0.612203
vn -0.790701 0.000000 -0.612203
vn -0.790701 0.000000 -0.612203
s 1
g pCube3
usemtl initialShadingGroup
f 1/1/1 2/2/2 3/3/3
f 3/3/3 2/2/2 4/4/4
s 2
f 3/3/5 4/4/6 5/5/7
f 5/5/7 4/4/6 6/6/8
s 3
f 5/5/9 6/6/10 7/7/11
f 7/7/11 6/6/10 8/8/12
s 4
f 7/7/13 8/8/14 1/9/15
f 1/9/15 8/8/14 2/10/16
s 5
f 2/2/17 8/11/18 4/4/19
f 4/4/19 8/11/18 6/12/20
s 6
f 7/13/21 1/1/22 5/14/23
f 5/14/23 1/1/22 3/3/24
s 7
f 9/15/25 10/16/26 11/18/27
f 11/18/27 10/16/26 12/17/28
s 8
f 13/20/29 11/18/30 14/19/31
f 11/18/30 12/17/32 14/19/31
s 9
f 13/20/33 14/19/34 15/22/35
f 15/22/35 14/19/34 16/21/36
s 10
f 15/22/37 16/21/38 9/24/39
f 16/21/38 10/23/40 9/24/39
s 11
f 10/16/41 16/25/42 12/17/43
f 12/17/43 16/25/42 14/26/44
s 12
f 15/27/45 9/15/46 13/28/47
f 13/28/47 9/15/46 11/18/48
